<svg xmlns="http://www.w3.org/2000/svg" viewBox="0 0 56.37 222.93"><defs><style>.cls-1{stroke:#fff;}.cls-1,.cls-2,.cls-3,.cls-4{stroke-miterlimit:10;}.cls-2{fill:none;}.cls-2,.cls-3,.cls-4{stroke:#000;}.cls-3{fill:#fff;}</style></defs><g id="图层_2" data-name="图层 2"><g id="图层_1-2" data-name="图层 1"><path class="cls-1" d="M25.83,77.6s-3.16,8.77,1.78,11.17l.91,2.14h2.36S33.65,81.55,33,78.82s-2.11-3-2.11-3L31,69.23l-.4-13.72s-1.17-4.64.86-7.62,4.1-3,4.1-3l-2-2.7-1.15-.88-4.63,3.54-4-2.92-4.28,4.5s5-1.94,5.64,1.83,1.25,9.24,1.25,9.24l-4,6.16,5.55,7.45Z"/><path class="cls-2" d="M10.31,15.72s0-10,14.75-13.84C26,1.64,28.61.61,28.61.61l1.26,1.94c9.2,1.18,15.32,11.51,14.3,20.56a19.32,19.32,0,0,1-.65,2.54c-.08.32-.28.66-.22,1,.71,3.23.52,3.57-2.45,4.17-.44,1.45-.88,2.89-1.38,4.51"/><path class="cls-3" d="M45.84,58.5l0,0c-.14,3.93-.32,7.85-.43,11.77,0,1.53.46,1.79,2,1.28,1.11-.38,2.26-.67,3.39-1l.23.55-3.4,1.89c3.41,1.7,4.55,4.58,3,7.69a6.07,6.07,0,0,1-1.23,1.31,7.72,7.72,0,0,1-.87-1.55C47.9,78.54,47,73.6,46,72.1c-1.67-2.41-3.1-1.62-5.14-3.77-3.27,2.87-4.2,3.75-5.78,3.73a5.4,5.4,0,0,0-3.8,1.82c1,1.42,2.1,2.81,3.07,4.26A29.1,29.1,0,0,0,45.2,87.42c3.41,1.84,5.59.92,6.72-2.81a33.45,33.45,0,0,0,1.15-5.68C54,70.49,55,62,55.75,53.58a76.69,76.69,0,0,0-.14-9.82,2,2,0,0,0-1.12-1.38c-4.7-1.79-9.44-3.48-14.18-5.19-.29-.11-.6-.15-1.31-.32.86,3.59,1.65,6.85,2.41,10.11.08.36.13,1-.06,1.11a1.33,1.33,0,0,1-1.22.09c-1.15-.81-2.19-1.75-3.31-2.61-.39-.31-1.07-.83-1.27-.71a18.54,18.54,0,0,0-4.1,3c-2.15,2.46-.69,5.42-.86,7.62,1.74.6,3.12,1.06,4.49,1.54.48.17,1,.34,1.43.53.68.29,1.35.61,2.49,1.12.76,0,2.11-.07,3.44,0,.37,0,1,.55,1,.83,0,2.44-.19,4.88-.31,7.32h-.33V62.28H39.12c2.22,2.28,2.17,5.58,5,7.21.3-3.08.55-6,.9-8.88A8.89,8.89,0,0,1,45.84,58.5Z"/><path class="cls-3" d="M11.16,95.7l.51,3.89A6.78,6.78,0,0,0,12,96.65c-.14-1.19-.57-2.36-.66-3.55a27.28,27.28,0,0,1,.17-3.49c.6,3.13,1.14,6.23,3.37,8.83a53,53,0,0,1,3.94,6.18c1.77-2.36,3.27-4.52,4.94-6.53s3.41-3.73,5.12-5.58L28.47,92,16.82,93.07l-.08-.48,11.78-1.68a7.16,7.16,0,0,0-.91-2.14c-2.8-3-2.71-6.41-1.91-10,.06-.26.06-.54.13-1.14-4.5,4.65-8.92,9-14.32,12.05-.46.06-.93.09-1.38.18"/><path class="cls-2" d="M31.75,100v17l4.3.7h0c-1.88.22-2.6-.59-4.46-.37.26,28-.66,57.16-.41,84.78h14.7c.39-29.85,2.86-59.36.53-88.9-5.6-2.63-5.48-8-5.85-13.25Z"/><path class="cls-3" d="M17.84,35.64c-.9-1.09-1.33-1.67-1.82-2.19a2.56,2.56,0,0,0-1.08-.83c-2.79-.58-3.9-2.44-3.55-5.39.29-2.49.22-5,.32-7.54l-.63.24c-.67-.53-1.83-1-1.89-1.61-.08-.8.69-1.69,1.12-2.6"/><path class="cls-3" d="M3.39,42.68c-.09,3.47-.56,6.83-.83,10.22-.76,9.37-1,18.75.49,28.08a19.12,19.12,0,0,0,1.59,4.79c1,2.26,3.81,2.83,6.62,1.39,3.92-2,7-5,9.77-7.87l-.48-2.77c-3.08-1.55-3.73-5.58-6.72-7.44l-9.7,8.06c-.11-.4,0-.63.11-.77C6.51,74.25,8.84,72.2,11,70a4.63,4.63,0,0,0,1.22-2.47,64.56,64.56,0,0,0,.55-7.35,2.57,2.57,0,0,0-1.18-1.79c-.83-.5-2-.43-2.77-1a2.73,2.73,0,0,1-1-2.24C8.1,54,9.19,54.3,10,54.75s1.55,1,2.33,1.45l.28-.21-3.29-6.7c5.32,5.35,4.9,11.84,4.1,17.38a27.71,27.71,0,0,0,3.31-2.51c1.48-1.42,2.81-2.8,4.71-1,.71-.85,1.31-1.54,1.87-2.26.28-.35.7-.79.67-1.14-.13-1.43.42-2.22,2.34-2.33-.41-3.17-.6-6.26-1.25-9.24-.49-2.21-2.94-2.63-4.46-1a14.39,14.39,0,0,1-2.26,1.94c-1.11.78-1.77.33-1.86-.95a14.87,14.87,0,0,1,0-2.11c.21-3.15.44-6.29.68-9.7L3.47,42"/><path class="cls-2" d="M26.09,117.17c-2.38,0-2.18.65-5.93,1,2.3-.25,0,.23,0,0l5.93-1V100.06c-1.17-.41-2,0-2.79,1.18a41.67,41.67,0,0,1-3.13,4c-1.28,1.52-2.42,1.37-3.36-.36-.14-.24-.31-.46-.55-.81a15.16,15.16,0,0,1-3.89,8A5.29,5.29,0,0,0,10.83,116c0,5.8.09,11.61-.07,17.42-.41,14.72-.93,29.43-1.41,44.15-.18,5.44-.41,10.88-.6,16.32-.08,2.11-.1,4.22-.15,6.34,0,1.45.54,2.08,2.11,2,2.58-.13,5.17-.07,7.75,0,4.54.06,4.57.08,4.68-4.62.17-7.16.11-14.32.46-21.46.7-14.64,1.61-29.28,2.44-43.92C26.29,127.83,25.81,121.78,26.09,117.17Z"/><path class="cls-2" d="M40.23,31.77c.23-1.46-.28-3.68,0-5.45-2.08-.11-3.4-.94-3.48-3-2.69,1.68-3.24,1.6-4.32-.68-.36.34-.6.58-.86.81-1.77,1.58-2.34,1.38-3.22-.83-.23-.59-1.07-1.38-1.56-1.33a4.36,4.36,0,0,0-2,1.28,21.57,21.57,0,0,0-1.66,1.78c-.41-.7-.83-1.41-1.26-2.1,0-.08-.19-.1-.55-.25a28.85,28.85,0,0,0-1.42,2.7c-.84,2.1-1.81,2.37-3.48.87-.23-.21-.49-.4-.89-.72-.17,1.74-.24,3.44-2.54,2.26-.29,2.76.47,5.58,2.61,5.92,0-1.46.27-6.19.27-7.66.11,0,.21,2,.32,1.94"/><path class="cls-2" d="M53.82,83.72a13.8,13.8,0,0,1-.64,2.55c-1,2.76-2.84,4.41-6.18,3.8a18.07,18.07,0,0,1,.24,3c-.06.86-.55,1.69-.61,2.56a8.38,8.38,0,0,0,.2,3.79,11.75,11.75,0,0,1,1.29,4.79c.35,12.85,1.05,25.69,1.16,38.54.1,12-.37,24.06-.63,36.08-.14,6.93-.26,13.86-.57,20.77-.23,5.17.48,4.77-5.13,5.18a2.21,2.21,0,0,0,.75,2.7c1.34,1.28,2.33,2.93,3.6,4.29a9.52,9.52,0,0,0,3.05,2.46c1.7.68,2.61,1.63,2.58,3.46,0,.47.08.94.09,1.41.07,3.28.07,3.13-3.15,3.1-4.1,0-8.21.21-12.31.26-1.68,0-3.49.12-4.16-2a.41.41,0,0,0-.22-.26c-2.49-.77-2-2.79-1.95-4.63.08-2.34.15-4.69.33-7a6.23,6.23,0,0,1,.75-2.21c.47-.91.39-1.41-.71-1.55-2.48-.31-2.49-.32-2.48-2.71q0-30.81.09-61.63c0-6.86-.05-13.71-.08-20.57a1.8,1.8,0,0,0-.48-1.27,7.69,7.69,0,0,0-.44,1.61c-.8,11.88-1.85,23.75-2.28,35.64-.51,14.37-.48,28.76-.7,43.13a37.35,37.35,0,0,1-.26,4.74c-.11.68-.79,1.27-1.2,1.91l-.84-.1c.29.73.59,1.47.88,2.21a6.49,6.49,0,0,1,.63,1.79c.19,3.1.31,6.21.43,9.32.06,1.51-.68,2.18-2.2,2.63-4.86,1.42-9.73,1-14.64.58-1.92-.18-3.87-.2-5.8-.19-1.2,0-1.65-.45-1.69-1.66-.18-4.67.07-5.37,4.52-6.74,3.15-1,4.49-3.41,5.86-5.92a9.34,9.34,0,0,0,.51-2.72l-1.26-.12c-3.24-.35-3.31-.35-3.39-3.68l.75-18.64c.94-28.08-.07-56.06,3.35-83.85l-.7-.1"/><path class="cls-2" d="M34.06,91.52v.38l-1.61.26c-.39,2.07-.07,2.54,1.9,2.37a2.92,2.92,0,0,0,1.73-1.1c.93-1.18,1.71-2.49,2.56-3.75l.54.32c.51,1.85-1.35,2.93-1.77,4.34,2.53,1.12,4.21-.43,5.87-2l.19.41-1.28,1.88c1.46,0,2.93.14,3.45-1.24.8-2.14.25-3.65-1.3-4.39a26.21,26.21,0,0,1-9-6.92c-1.2-1.44-2.41-2.87-3.61-4.3A14.27,14.27,0,0,1,30.66,88.2c-.88,1.83-.15,2.67,1.89,3C33.06,91.24,33.56,91.4,34.06,91.52Z"/><path class="cls-2" d="M20.26,209l-.47-.54c-2-.1-4-.15-5.94-.29a2.39,2.39,0,0,0-2.67,1.52,8.82,8.82,0,0,1-6.08,5.14,23.27,23.27,0,0,0-3.16,1.49l.17.44c.49,0,1,0,1.48,0,2.73.11,5.55-.18,8.16.43,3.61.87,7,1.65,10.47-.39a2.32,2.32,0,0,1,.8-.13v-8.34c-1.58,1.8-2.81,3.38-4.24,4.76a12.46,12.46,0,0,1-2.69,1.56l-.05-.29C17.45,212.58,18.85,210.79,20.26,209Z"/><path class="cls-2" d="M33.38,208.22l-.42.07c0,2.09,0,4.18,0,6.27a1,1,0,0,0,.35.73c1.57,1.13,3,2.57,5.29,1.49a8.58,8.58,0,0,1,2.42-.34l6.82-.94c-1.72-2.51-3.34-4.85-5-7.24-2.39,1.4-5.5-.86-7.58,1.7l2,3-.46.3C34.68,212.37,33.79,210.48,33.38,208.22Z"/><path class="cls-3" d="M26.07,71.11C24,68.19,22,65.44,19.89,62.52L15.3,67.87c1.51,2.06,3,3.95,4.32,5.91.56.81,1.13,1,1.9.43C23,73.25,24.37,72.27,26.07,71.11Z"/><path class="cls-3" d="M22.3,63.63c1.88,2.54,3.75,5,5.55,7.45a15.84,15.84,0,0,1,1.9-1.28c1.35-.67,2.8-1.16,4.1-1.92.5-.29.69-1.12,1.21-2-2.14.39-3.44,1.84-5.71,1.11l6.27-3.72-.09-.63a8.09,8.09,0,0,0-2.16-.22c-2,.35-3.87.93-5.82,1.24a3.71,3.71,0,0,1-2.62-.39C23.37,62,23.47,61.89,22.3,63.63Z"/><path class="cls-2" d="M30.41,117.14l.56-17H27.36c-.08,5.73-1.24,11.34.43,16.85Z"/><path class="cls-2" d="M50.92,220.29v-3.71c-4.82.64-9.42,1.27-14,1.84a3.18,3.18,0,0,1-2-.29,7.07,7.07,0,0,1-1.43-1.89l-.69.6,3.38,4.24Z"/><path class="cls-2" d="M46.73,112.11c0-1.4,0-2.75,0-4.09-.08-2-.13-4.09-.39-6.11-.1-.76.13-2.07-1.32-2-1.16,0-2.31.13-3.65.21C42.11,104.59,42.11,109.25,46.73,112.11Z"/><path class="cls-2" d="M2,220.21c3,.17,5.91.15,8.73.52a27.34,27.34,0,0,0,11.2-1.12c1-.28,1.39-.73,1-1.85-.67.26-1.34.46-1.95.77a8.33,8.33,0,0,1-7.1.38,20.56,20.56,0,0,0-11.88-1Z"/><path class="cls-2" d="M23.72,41.9c1.2,3.05-.48-4.57-4.15-5.59-1.2-.34-1.6-.25-1.61,1,0,3-.11,6.07-.16,9.1,0,.41.09.82.17,1.52Z"/><path class="cls-2" d="M39.47,35.28a4.67,4.67,0,0,0-1.49.31c-3.37,1.23-7.16,4.13-10.91,3.5-1.95-.33-5.61-2.16-7.5-2.78"/><path class="cls-2" d="M30.76,32.73c-.89-.2-.51.37-2.7.52-1.16.09-2-.79-3-.26"/><path class="cls-2" d="M25.56,34.73c.34.48.27,1,.47,1.36.41.76,1,1.44,1.44,2.15a27.07,27.07,0,0,0,2-1.9,7.45,7.45,0,0,0,.79-1.51l.37.11"/><path class="cls-2" d="M39,45c-.26-2.66-.07-5-.46-7.48-.23-1.43-.8.29-1.39.74-1.74,1.33-3.13,2-3.68,3.9Z"/><path class="cls-2" d="M11.13,112c2.88-2.92,3.74-6.23,4.19-9.64a1.63,1.63,0,0,0-1.77-1.76c-1.13,0-1.35.58-1.44,1.52C11.83,105.22,11.5,108.36,11.13,112Z"/><path class="cls-2" d="M39,98.41h6l-.15-2.18h-6Z"/><path class="cls-2" d="M38.82,33a6.51,6.51,0,0,0-8.06-.31C33.43,34.26,36,33.56,38.82,33Z"/><path class="cls-4" d="M37.08,59.24v-.5c-.12-.1-.25-.31-.37-.31-3.79.09-7.58.18-11.37.32-.22,0-.42.46-.45.49Z"/><path class="cls-2" d="M24.49,32.8a9.06,9.06,0,0,0-7.19.33C19,34.38,22,34.28,24.49,32.8Z"/><path class="cls-4" d="M42.49,59.48H38.28c-.62,2.19.9,2.39,4.21,1.73Z"/><path class="cls-2" d="M36.87,96.33H33.28l.29,2.11h3.12Z"/><path class="cls-2" d="M22.14,77.31c3.91-3.21,4.57-4.22,3.68-5.68Z"/><path class="cls-2" d="M41.5,25.5l-.57.18v3.87c.8-.38,1.6-1,1.58-1.57A7.42,7.42,0,0,0,41.5,25.5Z"/><path d="M38.81,108.67q-.68-3.17-1.34-6.34l.35-.07,1.36,6.33Z"/><path d="M45.84,58.5a16.75,16.75,0,0,1,.43-2.85c.55-1.71,1.28-3.37,2.11-5.51.16.77.37,1.14.29,1.43-.58,2-1.17,3.9-1.86,5.82-.15.42-.67.71-1,1.07Z"/><path d="M30.25,28.47c2.28-1.82,4.61-.87,6.94,0Z"/><path d="M18.55,28.83c2.13-.79,4.23-2,6.26,0Z"/><path d="M22.52,72.87c-.43-.8-.91-1.28-.85-1.69s.61-.82.95-1.22c.36.43.94.84,1,1.32S23.08,72.11,22.52,72.87Z"/><polygon class="cls-4" points="24.89 59.24 22.65 62.08 26.07 63.66 33.37 62.4 35.62 63.25 37.66 62 39.12 62.28 38.28 59.48 37.08 58.74 24.89 59.24"/><path d="M46,71.63l1.4,4.87,1.48,4.78.64.44s1.94-2,1.69-3.64-3.31-5-3.31-5l2.39-1.72.23-.85Z"/></g></g></svg>